<?xml version="1.0" encoding="iso-8859-1"?>
<!-- Generator: Adobe Illustrator 16.0.0, SVG Export Plug-In . SVG Version: 6.00 Build 0)  -->
<!DOCTYPE svg PUBLIC "-//W3C//DTD SVG 1.1//EN" "http://www.w3.org/Graphics/SVG/1.1/DTD/svg11.dtd">
<svg version="1.1" id="Capa_1" xmlns="http://www.w3.org/2000/svg" xmlns:xlink="http://www.w3.org/1999/xlink" x="0px" y="0px"
	 width="31.738px" height="31.739px" viewBox="0 0 31.738 31.739" style="enable-background:new 0 0 31.738 31.739;"
	 xml:space="preserve">
<g>
	<g>
		<circle cx="10.201" cy="9.904" r="2.211"/>
		<path d="M14.911,10.868c-0.494-0.024-0.977,0.154-1.335,0.495c-0.359,0.341-0.563,0.814-0.563,1.309v2.083h12.044
			c0.189,0,0.358-0.12,0.422-0.3c0.062-0.179,0.004-0.378-0.144-0.496C24.023,12.913,20.968,11.175,14.911,10.868z"/>
		<path d="M11.306,14.381c0-0.567-0.394-1.059-0.949-1.182l-4.055-0.898c-0.205-0.045-0.418,0.005-0.582,0.136
			c-0.164,0.132-0.258,0.33-0.258,0.539v1.714h5.844V14.381z"/>
		<path d="M30.283,21.196v-8.735c0-0.635-0.514-1.15-1.149-1.15c-0.635,0-1.147,0.516-1.147,1.15v3.475H3.754V6.707
			c0-0.638-0.514-1.15-1.149-1.15c-0.636,0-1.149,0.513-1.149,1.15v14.489C0.594,21.627,0,22.519,0,23.549
			C0,25,1.181,26.181,2.631,26.181S5.262,25,5.262,23.549c0-1.051-0.618-1.959-1.508-2.381v-2.08h24.23v2.08
			c-0.891,0.422-1.508,1.33-1.508,2.381c0,1.451,1.18,2.632,2.631,2.632s2.631-1.181,2.631-2.632
			C31.738,22.521,31.145,21.627,30.283,21.196z M4.111,23.549c0,0.814-0.663,1.479-1.479,1.479s-1.48-0.664-1.48-1.479
			c0-0.338,0.114-0.65,0.305-0.899v0.171c0,0.637,0.513,1.151,1.149,1.151c0.635,0,1.149-0.515,1.149-1.151v-0.234
			C3.977,22.845,4.111,23.182,4.111,23.549z M29.107,25.028c-0.816,0-1.479-0.664-1.479-1.479c0-0.367,0.134-0.704,0.356-0.963
			v0.232c0,0.639,0.514,1.152,1.148,1.152c0.637,0,1.148-0.516,1.148-1.152v-0.168c0.191,0.247,0.305,0.561,0.305,0.896
			C30.587,24.364,29.923,25.028,29.107,25.028z"/>
	</g>
</g>
<g>
</g>
<g>
</g>
<g>
</g>
<g>
</g>
<g>
</g>
<g>
</g>
<g>
</g>
<g>
</g>
<g>
</g>
<g>
</g>
<g>
</g>
<g>
</g>
<g>
</g>
<g>
</g>
<g>
</g>
</svg>
