<svg height="496pt" viewBox="0 0 496 496" width="496pt" xmlns="http://www.w3.org/2000/svg"><path d="m496 200.136719c0-22.640625-6.761719-44.480469-19.542969-63.167969l-92.457031-135.136719-92.457031 135.136719c-12.78125 18.6875-19.542969 40.527344-19.542969 63.167969 0 59.03125 45.984375 107.398437 104 111.472656v144.390625c0 13.230469-10.769531 24-24 24s-24-10.769531-24-24v-72c0-17.648438-14.351562-32-32-32s-32 14.351562-32 32v80c0 8.824219-7.175781 16-16 16s-16-7.175781-16-16v-96c0-8.824219-7.175781-16-16-16h-24v-32.449219c0-3.703125.871094-7.414062 2.527344-10.734375l25.25-50.488281c2.757812-5.519531 4.222656-11.710937 4.222656-17.878906v-164.449219c0-15.441406-12.558594-28-28-28-4.3125 0-8.351562 1.0625-12 2.808594v-6.808594c0-15.441406-12.558594-28-28-28-4.894531 0-9.425781 1.375-13.433594 3.585938-3.597656-11.3125-14.078125-19.585938-26.566406-19.585938s-22.96875 8.273438-26.566406 19.585938c-4.007813-2.210938-8.539063-3.585938-13.433594-3.585938-15.441406 0-28 12.558594-28 28v56.320312c-8.503906-7.632812-19.695312-12.320312-32-12.320312-8.824219 0-16 7.175781-16 16v136.449219c0 6.167969 1.464844 12.359375 4.214844 17.886719l25.25 50.480468c1.664062 3.320313 2.535156 7.03125 2.535156 10.734375v176.449219h160v-128h24v96c0 17.648438 14.351562 32 32 32s32-14.351562 32-32v-80c0-8.824219 7.175781-16 16-16s16 7.175781 16 16v72c0 22.054688 17.945312 40 40 40s40-17.945312 40-40v-144.398438c58.015625-4.066406 104-52.441406 104-111.464843zm-320 279.863281h-128v-160.449219c0-6.167969-1.464844-12.359375-4.214844-17.886719l-25.25-50.480468c-1.664062-3.320313-2.535156-7.03125-2.535156-10.734375v-136.449219c17.648438 0 32 14.351562 32 32v56h16v-148c0-6.617188 5.382812-12 12-12s12 5.382812 12 12v140h16v-156c0-6.617188 5.382812-12 12-12s12 5.382812 12 12v156h16v-140c0-6.617188 5.382812-12 12-12s12 5.382812 12 12v140h16v-108c0-6.617188 5.382812-12 12-12s12 5.382812 12 12v164.449219c0 3.703125-.871094 7.414062-2.527344 10.734375l-25.25 50.488281c-2.757812 5.519531-4.222656 11.710937-4.222656 17.878906v32.449219h-40v-48h-48v112h48v-48h40zm-56-160v80h-16v-80zm264.136719-24h-.265625c-52.863282 0-95.871094-43-95.871094-95.863281 0-19.402344 5.792969-38.121094 16.753906-54.136719l79.246094-115.832031 79.246094 115.832031c10.960937 16.015625 16.753906 34.734375 16.753906 54.136719 0 52.863281-43.007812 95.863281-95.863281 95.863281zm0 0"/><path d="m463.488281 191.097656-15.886719 1.804688c.261719 2.386718.40625 4.800781.40625 7.234375-.007812 35.207031-28.65625 63.863281-64.144531 63.863281l.265625 16c44.039063 0 79.871094-35.832031 79.871094-79.863281 0-3.03125-.167969-6.046875-.511719-9.039063zm0 0"/><path d="m459.367188 173.3125c-2.296876-6.441406-5.4375-12.585938-9.328126-18.273438l-13.199218 9.039063c3.121094 4.554687 5.625 9.472656 7.472656 14.617187zm0 0"/><path d="m424 216c0-9.601562-4.335938-18.128906-11.054688-24 6.71875-5.871094 11.054688-14.398438 11.054688-24 0-17.648438-14.351562-32-32-32h-48v112h48c17.648438 0 32-14.351562 32-32zm-64-64h32c8.824219 0 16 7.175781 16 16s-7.175781 16-16 16h-32zm0 48h32c8.824219 0 16 7.175781 16 16s-7.175781 16-16 16h-32zm0 0"/></svg>