<?xml version="1.0" encoding="utf-8"?>

<!DOCTYPE svg PUBLIC "-//W3C//DTD SVG 1.1//EN" "http://www.w3.org/Graphics/SVG/1.1/DTD/svg11.dtd">
<svg version="1.1" id="Layer_1" xmlns="http://www.w3.org/2000/svg" xmlns:xlink="http://www.w3.org/1999/xlink" x="0px" y="0px"
	 viewBox="0 0 2234 1657.855" enable-background="new 0 0 2234 1657.855" xml:space="preserve">
<g>
	<path d="M320.74,546.886c-8.597,4.38-196.085,333.888-210.337,355.236c-25.018,37.473-85.422,14.08-68.391-26.395
		c25.877-61.5,127.616-295.381,192.331-427.687c35.62-72.823,96.124-112.041,188.502-114.872
		c277.042-8.49,261.021,17.859,435.595,412.396c19.221,43.439,38.258,86.944,56.637,130.65
		c16.457,39.134-44.388,64.184-69.145,25.307c-15.506-24.351-198.208-345.223-210.696-353.503
		c11.652,66.09,70.583,374.002,100.139,528.65c3.703,19.378,4.051,19.348-19.409,19.378c-78.226,0.099-80.393-3.953-81.348,11.975
		c-3.547,59.137-30.924,485.97-30.99,486.986c-1.396,21.465-14.87,33.551-36.972,33.734c-22.612,0.188-36.559-12.52-38.076-34.67
		c-10.957-160.053-21.836-320.11-33.134-480.145c-0.527-7.463,3.837-18.198-14.337-18.376c-16.998-0.167-21.764,3.901-22.628,18.663
		c-9.251,157.899-19.385,315.761-29.513,473.621c-1.709,26.63-12.242,38.847-33.311,40.837
		c-24.942,2.356-41.484-11.643-42.986-35.66c-5.741-91.81-11.661-183.611-17.568-275.413c-4.358-67.73-9.55-135.43-12.653-203.201
		c-0.731-15.959-6.853-19.523-23.71-18.621c-21.473,1.149-43.138-0.457-64.633,0.528c-14.662,0.672-16.011-4.822-14.037-15.025
		C220.27,1080.245,320.74,562.244,320.74,546.886z"/>
	<path d="M1934.704,544.074c-5.553,5.26-5.059,10.537-5.105,15.223c-3.984,398.95-25.65-152.726,20.598,1000.436
		c0.225,5.607,0.221,11.231-0.001,16.837c-2.695,67.964-116.055,69.507-123.677,4.92c-72.942-618.033-64.09-581.324-73.007-591.345
		c-8.276,72.191-64.269,560.954-67.712,588.986c-8.69,70.755-127.896,63.618-125.328-6.602
		c34.401-940.764,35.339-628.166,21.183-1017.218c-0.132-3.64-1.38-7.25-3.034-15.481
		c-110.305,208.152-104.254,197.826-189.08,358.412c-22.534,42.66-86.474,18.833-70.743-22.563
		c50.774-133.615,101.72-267.155,157.218-399.433c37.142-88.529,106.138-137.315,215.736-142.515
		c320.694-15.217,313.711,57.502,444.563,392.537c19.078,48.847,37.318,97.938,55.553,147.024
		c8.04,21.642,0.471,37.729-19.936,44.787c-21.299,7.366-39.847-0.287-51.229-21.897
		C1913.739,503.28,1951.988,573.92,1934.704,544.074z"/>
	<path d="M1114.785,1362.748c-36.987,220.737-36.399,217.698-39.511,233.889c-4.423,23.014-19.15,33.883-43.053,32.061
		c-21.387-1.63-35.364-16.629-34.261-38.159c21.645-422.714,31.078-458.459-22.48-476.652
		c-55.561-18.873-131.706-116.138-166.132-162.358c-5.956-7.997-11.8-16.342-7.457-26.729c7.298-17.454,30.776-19.032,46.705-2.385
		c117.292,122.579,164.424,132.09,208.408,122.579c152.305-32.936,130.94,72.68,303.374-96.963
		c23.342-22.965,37.896-48.196,62.583-33.51c13.559,8.066,13.982,19.746,5.72,31.201c-38.705,53.662-112.663,149.17-175.06,170.719
		c-20.238,6.989-29.156,19.412-29.932,37.376c-7.75,179.295-6.224,68.312,11.578,437.008c1.117,23.138-11.473,36.323-33.389,37.88
		c-23.923,1.7-39.152-8.979-43.165-32.181C1115.944,1349.202,1123.259,1367.734,1114.785,1362.748z"/>
	<path d="M477.784,28.929c88.699-0.11,159.268,60.507,159.131,136.688c-0.135,75.095-70.611,135.709-158.174,136.039
		c-87.84,0.332-159.754-61.487-159.32-136.954C319.856,89.33,390.179,29.037,477.784,28.929z"/>
	<path d="M1913.661,164.786c-0.016,76.031-69.286,136.256-156.892,136.404c-88.186,0.149-160.619-61.318-160.545-136.238
		c0.075-75.542,71.389-136.051,160.311-136.023C1844.678,28.956,1913.677,88.615,1913.661,164.786z"/>
	<path d="M1214.558,937.778c0.22,46.137-42.589,83.561-96.281,84.171c-54.3,0.617-98.981-37.068-99.087-83.571
		c-0.106-46.754,44.055-84.566,98.386-84.239C1171.233,854.462,1214.338,891.636,1214.558,937.778z"/>
</g>
</svg>
